<svg width="165" height="37" viewBox="0 0 165 37" fill="none" xmlns="http://www.w3.org/2000/svg">
<path d="M52.0438 32.7101C52.5657 32.7101 52.9716 32.6521 53.2615 32.5361C53.5708 32.4201 53.8028 32.2462 53.9574 32.0142C54.112 31.7629 54.2087 31.444 54.2474 31.0574C54.3053 30.6708 54.3343 30.2166 54.3343 29.6947V10.7904C54.1217 10.4038 53.9284 10.0656 53.7545 9.77563C53.5998 9.46636 53.4645 9.20541 53.3485 8.99278C53.2132 8.7415 53.0876 8.51921 52.9716 8.32592H57.2338C57.3884 8.61586 57.7073 9.20541 58.1906 10.0946C58.6931 10.9837 59.2923 12.0565 59.9882 13.3129C60.6841 14.5693 61.4476 15.9514 62.2788 17.4591C63.1099 18.9475 63.9411 20.4455 64.7723 21.9532C65.6034 23.4416 66.3959 24.8816 67.1498 26.2733C67.923 27.6651 68.5995 28.8732 69.1794 29.8976V11.6313C69.1794 11.1094 69.1504 10.6551 69.0924 10.2685C69.0537 9.88194 68.9571 9.57267 68.8025 9.34071C68.6478 9.08943 68.4159 8.9058 68.1066 8.78982C67.8166 8.67385 67.4107 8.61586 66.8888 8.61586V8.32592C67.4687 8.34525 67.952 8.36458 68.3385 8.38391C68.7445 8.38391 69.1117 8.38391 69.4403 8.38391C69.7883 8.38391 70.1362 8.38391 70.4841 8.38391C70.8514 8.36458 71.2863 8.34525 71.7889 8.32592V8.61586C71.267 8.61586 70.8514 8.66418 70.5421 8.76083C70.2522 8.85748 70.0299 9.02178 69.8752 9.25373C69.7206 9.48569 69.6143 9.80462 69.5563 10.2105C69.5176 10.5971 69.4983 11.0804 69.4983 11.6603V30.4775C69.7109 30.8641 69.9042 31.212 70.0782 31.5213C70.2522 31.8306 70.3971 32.0915 70.5131 32.3041C70.6484 32.5554 70.7741 32.7874 70.89 33H66.6569C66.4249 32.5748 66.0383 31.8886 65.4971 30.9414C64.9752 29.9749 64.3567 28.8635 63.6415 27.6071C62.9456 26.3313 62.1918 24.9589 61.3799 23.4899C60.5681 22.0015 59.7563 20.5325 58.9444 19.0828C58.1326 17.6137 57.3497 16.2123 56.5959 14.8786C55.8614 13.5255 55.2138 12.3464 54.6533 11.3413V29.7816C54.6533 30.3422 54.6726 30.8158 54.7113 31.2024C54.7692 31.5696 54.8756 31.8692 55.0302 32.1012C55.1848 32.3138 55.4071 32.4684 55.6971 32.5651C56.0063 32.6617 56.4219 32.7101 56.9438 32.7101V33C56.4412 32.9807 56.0063 32.971 55.6391 32.971C55.2911 32.9517 54.9432 32.942 54.5953 32.942C54.2667 32.942 53.8994 32.9517 53.4935 32.971C53.1069 32.971 52.6237 32.9807 52.0438 33V32.7101ZM73.8744 32.7101C74.3576 32.7101 74.7539 32.6424 75.0632 32.5071C75.3724 32.3718 75.6044 32.1688 75.759 31.8982C75.9137 31.6276 76.02 31.2893 76.078 30.8834C76.136 30.4582 76.1649 29.9653 76.1649 29.4047V11.3993C76.1649 10.9741 76.1456 10.5971 76.107 10.2685C76.0683 9.9206 75.9813 9.63066 75.846 9.3987C75.7107 9.14742 75.5174 8.95413 75.2661 8.81882C75.0148 8.68351 74.6766 8.61586 74.2513 8.61586V8.32592H93.5325V8.4129L94.5183 13.7478L94.2863 13.8348C93.5711 12.849 92.8753 12.0275 92.1988 11.3703C91.5222 10.6938 90.778 10.1526 89.9662 9.74663C89.1737 9.34072 88.2652 9.06044 87.2407 8.9058C86.2356 8.73184 85.0565 8.64485 83.7034 8.64485H79.8762V18.8218H81.065C82.3794 18.8218 83.4715 18.7542 84.3413 18.6189C85.2111 18.4836 85.9263 18.2709 86.4869 17.981C87.0668 17.6717 87.521 17.2658 87.8496 16.7632C88.1782 16.2413 88.4585 15.6035 88.6905 14.8496H88.8644V23.084H88.6905C88.3425 22.3688 87.9946 21.7599 87.6467 21.2573C87.2987 20.7548 86.8541 20.3489 86.3129 20.0396C85.791 19.711 85.1145 19.479 84.2833 19.3437C83.4522 19.1891 82.3794 19.1118 81.065 19.1118H79.8762V32.6811H83.0076C84.322 32.6811 85.5108 32.6037 86.5739 32.4491C87.6563 32.2751 88.6421 31.9852 89.5313 31.5793C90.4398 31.154 91.2806 30.5838 92.0538 29.8686C92.827 29.1534 93.5808 28.2546 94.3153 27.1722L94.5183 27.2301L93.5325 33H73.8744V32.7101ZM95.1217 8.32592C95.8563 8.36458 96.5038 8.40323 97.0643 8.44189C97.6442 8.46122 98.2144 8.47089 98.775 8.47089C99.3356 8.47089 99.9154 8.46122 100.515 8.44189C101.114 8.40323 101.8 8.36458 102.573 8.32592C103.288 8.28726 103.907 8.43223 104.429 8.76083C104.951 9.08943 105.415 9.51468 105.821 10.0366C106.227 10.5585 106.574 11.1287 106.864 11.7472C107.174 12.3658 107.464 12.9457 107.734 13.4869C108.024 14.0088 108.304 14.4534 108.575 14.8206C108.865 15.1686 109.184 15.3425 109.532 15.3425C109.86 15.3425 110.218 15.1492 110.605 14.7626C111.204 13.9895 111.764 13.2743 112.286 12.6171C112.808 11.9405 113.282 11.322 113.707 10.7614C114.171 10.1622 114.239 9.68865 113.91 9.34071C113.601 8.97345 112.837 8.7415 111.619 8.64485V8.32592C112.199 8.36458 112.712 8.39357 113.156 8.4129C113.62 8.43223 114.045 8.44189 114.432 8.44189C114.915 8.44189 115.35 8.43223 115.737 8.4129C116.143 8.39357 116.568 8.36458 117.012 8.32592V8.55787C116.684 8.67385 116.384 8.79949 116.114 8.9348C115.862 9.05077 115.63 9.19574 115.418 9.36971C115.205 9.52434 114.992 9.71764 114.78 9.94959C114.567 10.1622 114.345 10.4328 114.113 10.7614C113.32 11.7666 112.364 12.994 111.243 14.4437C110.141 15.8741 108.962 17.3818 107.705 18.9668L115.07 29.8106C115.688 30.7385 116.239 31.4343 116.722 31.8982C117.225 32.3428 117.67 32.6327 118.056 32.768L118.027 33C117.273 32.942 116.597 32.9034 115.998 32.884C115.418 32.8647 114.847 32.855 114.287 32.855C113.726 32.855 113.137 32.8647 112.518 32.884C111.919 32.9034 111.214 32.942 110.402 33V32.768C110.75 32.6327 110.991 32.4588 111.127 32.2462C111.281 32.0142 111.339 31.7629 111.301 31.4923C111.281 31.2217 111.194 30.9317 111.04 30.6225C110.885 30.3132 110.692 29.9846 110.46 29.6367C109.783 28.6122 109 27.4524 108.111 26.1574C107.222 24.843 106.294 23.4706 105.328 22.0402C103.975 23.7798 102.689 25.4228 101.471 26.9692C100.273 28.5156 99.2679 29.8106 98.4561 30.8544C98.1275 31.357 98.0308 31.7726 98.1661 32.1012C98.3208 32.4105 98.8137 32.6327 99.6448 32.768V33C99.2196 32.9613 98.8523 32.9323 98.5431 32.913C98.2338 32.8937 97.9438 32.884 97.6732 32.884C97.306 32.884 96.9484 32.8937 96.6004 32.913C96.2525 32.9323 95.8466 32.9613 95.3827 33V32.768C95.9432 32.5748 96.3975 32.3718 96.7454 32.1592C97.0933 31.9272 97.4413 31.6083 97.7892 31.2024C98.1951 30.6805 98.6687 30.0716 99.2099 29.3757C99.7511 28.6799 100.341 27.926 100.979 27.1142C101.616 26.3023 102.283 25.4422 102.979 24.5337C103.675 23.6252 104.39 22.7071 105.125 21.7792C104.487 20.8321 103.839 19.8849 103.182 18.9378C102.544 17.9713 101.916 17.0435 101.298 16.1544C100.698 15.2459 100.128 14.3857 99.5868 13.5739C99.0456 12.762 98.5527 12.0275 98.1081 11.3703C97.9148 11.0997 97.7022 10.8194 97.4703 10.5295C97.2576 10.2395 97.0257 9.96892 96.7744 9.71764C96.5231 9.46636 96.2525 9.24407 95.9626 9.05077C95.692 8.83815 95.402 8.67385 95.0927 8.55787L95.1217 8.32592ZM102.776 8.64485C102.1 8.68351 101.742 8.91547 101.703 9.34071C101.665 9.74663 101.848 10.2589 102.254 10.8774C102.583 11.38 103.037 12.0662 103.617 12.936C104.216 13.8058 104.806 14.6757 105.386 15.5455C106.062 16.5506 106.777 17.6041 107.531 18.7058C107.957 18.1646 108.372 17.6331 108.778 17.1112C109.184 16.5893 109.58 16.077 109.967 15.5745C109.812 15.6518 109.619 15.6808 109.387 15.6615C109.174 15.6228 108.962 15.5261 108.749 15.3715C108.459 15.1589 108.188 14.8496 107.937 14.4437C107.705 14.0184 107.464 13.5642 107.212 13.081C106.961 12.5784 106.69 12.0662 106.4 11.5443C106.13 11.0031 105.821 10.5198 105.473 10.0946C105.125 9.66932 104.728 9.32139 104.284 9.05077C103.859 8.78016 103.356 8.64485 102.776 8.64485ZM119.376 8.32592C120.207 8.38391 120.893 8.43223 121.435 8.47089C121.995 8.49022 122.527 8.49988 123.029 8.49988C123.532 8.49988 124.034 8.49022 124.537 8.47089C125.04 8.43223 125.639 8.39357 126.335 8.35491C126.412 8.35491 126.489 8.35491 126.567 8.35491C126.644 8.35491 126.721 8.34525 126.799 8.32592C127.881 8.26793 128.828 8.32592 129.64 8.49988C130.471 8.65452 131.157 9.00245 131.699 9.54367C132.24 10.0656 132.626 10.8194 132.858 11.8052C133.09 12.7717 133.168 14.0281 133.09 15.5745C133.032 16.9275 133.1 18.068 133.293 18.9958C133.487 19.9043 133.757 20.6388 134.105 21.1994C134.472 21.7599 134.888 22.1658 135.352 22.4171C135.835 22.6491 136.328 22.765 136.831 22.765C137.179 22.765 137.536 22.7167 137.903 22.6201C138.271 22.5041 138.599 22.3398 138.889 22.1272C139.198 21.8952 139.459 21.6053 139.672 21.2573C139.885 20.9094 140.02 20.4842 140.078 19.9816V11.3993C140.078 10.9741 140.059 10.5971 140.02 10.2685C139.981 9.9206 139.894 9.63066 139.759 9.3987C139.624 9.14742 139.43 8.95413 139.179 8.81882C138.928 8.68351 138.59 8.61586 138.164 8.61586V8.32592C138.764 8.38391 139.508 8.4129 140.397 8.4129C141.054 8.4129 141.692 8.38391 142.311 8.32592V8.61586C141.885 8.61586 141.547 8.68351 141.296 8.81882C141.044 8.95413 140.851 9.14742 140.716 9.3987C140.581 9.63066 140.494 9.9206 140.455 10.2685C140.416 10.5971 140.397 10.9741 140.397 11.3993V24.9686C140.397 26.1477 140.233 27.1625 139.904 28.013C139.575 28.8635 139.14 29.5883 138.599 30.1876C138.058 30.7674 137.439 31.241 136.744 31.6083C136.067 31.9755 135.371 32.2655 134.656 32.4781C133.96 32.6714 133.274 32.8067 132.597 32.884C131.921 32.942 131.331 32.9807 130.829 33C129.592 33.0387 128.393 32.913 127.234 32.6231C126.093 32.3331 125.078 31.8789 124.189 31.2603C123.319 30.6418 122.614 29.859 122.073 28.9118C121.551 27.9453 121.29 26.8146 121.29 25.5195V11.3993C121.29 10.9741 121.27 10.5971 121.232 10.2685C121.193 9.9206 121.106 9.63066 120.971 9.3987C120.835 9.14742 120.642 8.95413 120.391 8.81882C120.14 8.68351 119.801 8.61586 119.376 8.61586V8.32592ZM125.001 25.5195C125.001 26.544 125.165 27.4911 125.494 28.3609C125.842 29.2114 126.315 29.9459 126.915 30.5645C127.514 31.183 128.229 31.6759 129.06 32.0432C129.911 32.3911 130.838 32.5651 131.844 32.5651C132.056 32.5651 132.279 32.5554 132.51 32.5361C132.742 32.5168 132.974 32.4878 133.206 32.4491C135.275 32.1012 136.927 31.3473 138.164 30.1876C139.401 29.0278 140.039 27.3848 140.078 25.2585V21.1124C139.788 21.7502 139.343 22.2335 138.744 22.5621C138.164 22.8907 137.536 23.0646 136.86 23.084C136.009 23.084 135.313 22.8617 134.772 22.4171C134.231 21.9532 133.806 21.3637 133.496 20.6485C133.187 19.9333 132.984 19.1311 132.887 18.2419C132.791 17.3335 132.762 16.4443 132.8 15.5745C132.878 13.5835 132.723 12.0952 132.336 11.1094C132.105 10.5295 131.805 10.0752 131.438 9.74663C131.07 9.3987 130.645 9.13775 130.162 8.96379C129.679 8.78982 129.147 8.68351 128.567 8.64485C127.987 8.60619 127.388 8.59653 126.77 8.61586C125.996 8.65452 125.504 8.91547 125.291 9.3987C125.098 9.86261 125.001 10.5005 125.001 11.3123V25.5195ZM145.711 25.4905L145.943 25.5195C146.098 26.5633 146.378 27.5298 146.784 28.4189C147.19 29.2887 147.712 30.0426 148.349 30.6805C148.987 31.3183 149.732 31.8209 150.582 32.1882C151.452 32.5361 152.418 32.7101 153.481 32.7101C154.429 32.7101 155.318 32.6134 156.149 32.4201C156.999 32.2075 157.734 31.8886 158.352 31.4633C158.99 31.0381 159.493 30.5065 159.86 29.8686C160.227 29.2114 160.411 28.4286 160.411 27.5201C160.411 26.6696 160.179 25.9641 159.715 25.4035C159.271 24.8236 158.681 24.3307 157.947 23.9248C157.212 23.5189 156.371 23.171 155.424 22.881C154.477 22.5717 153.501 22.2721 152.496 21.9822C151.51 21.6729 150.543 21.3347 149.596 20.9674C148.649 20.6001 147.808 20.1459 147.074 19.6047C146.339 19.0634 145.74 18.4159 145.276 17.6621C144.831 16.8889 144.609 15.9417 144.609 14.8206C144.609 13.6222 144.889 12.6171 145.45 11.8052C146.03 10.9741 146.774 10.3072 147.683 9.80462C148.61 9.28273 149.654 8.9058 150.814 8.67385C151.974 8.44189 153.153 8.32592 154.351 8.32592C155.936 8.32592 157.396 8.49022 158.729 8.81882C160.063 9.14742 161.416 9.64999 162.789 10.3265L161.339 15.3425L161.049 15.3135C161.01 14.3664 160.807 13.4869 160.44 12.6751C160.092 11.8439 159.619 11.1384 159.019 10.5585C158.42 9.95926 157.715 9.49535 156.903 9.16675C156.11 8.81882 155.25 8.64485 154.322 8.64485C153.472 8.64485 152.66 8.76083 151.887 8.99278C151.114 9.20541 150.427 9.52435 149.828 9.94959C149.229 10.3748 148.755 10.9064 148.407 11.5443C148.06 12.1821 147.886 12.907 147.886 13.7188C147.886 14.5114 148.108 15.1782 148.552 15.7194C149.016 16.2413 149.616 16.6859 150.35 17.0532C151.104 17.4011 151.954 17.7104 152.902 17.981C153.868 18.2516 154.844 18.5319 155.83 18.8218C156.835 19.0924 157.811 19.4017 158.758 19.7496C159.725 20.0976 160.575 20.5421 161.31 21.0834C162.064 21.6053 162.663 22.2625 163.108 23.055C163.571 23.8282 163.803 24.785 163.803 25.9254C163.803 27.2591 163.523 28.3803 162.963 29.2887C162.402 30.1972 161.648 30.9317 160.701 31.4923C159.754 32.0335 158.652 32.4201 157.396 32.6521C156.159 32.884 154.863 33 153.51 33C151.848 33 150.263 32.8067 148.755 32.4201C147.267 32.0335 145.817 31.4053 144.406 30.5355L145.711 25.4905Z" fill="white"/>
<path d="M40.9718 36.1684C41.6858 35.4398 43.2032 33.8237 43.5602 33.1878L38.2048 26.8291L32.6708 20.1724L30.2609 17.2912L27.9402 14.708C27.7319 14.443 27.244 13.8734 26.9584 13.7144C26.6728 13.5555 26.1848 13.6482 25.9765 13.7144L24.9055 14.8073C24.7865 14.9067 24.477 15.2842 24.1914 15.9996C23.9058 16.7149 24.5484 17.8873 24.9055 18.3841L25.8873 19.5763L36.1519 32.0949L39.0974 35.6716C39.3354 35.9366 39.865 36.5062 40.0792 36.6652C40.2934 36.8242 40.7635 36.4002 40.9718 36.1684Z" fill="url(#paint0_angular_32_115)"/>
<path d="M0.00265293 29.2411V24.8421L11.0706 11.628C13.3615 9.01167 18.3718 3.26239 20.0856 1.19583C21.7993 -0.870734 22.2277 0.334761 22.2277 1.19583V7.9519L6.42919 26.1337L3.57295 29.6111C1.7164 32.075 1.25226 32.4261 1.25226 32.2936C0.181168 32.3731 -0.0270995 30.2917 0.00265293 29.2411Z" fill="url(#paint1_angular_32_115)"/>
<path d="M23.2096 1.19583V7.9519L43.5602 32.0949C43.7983 32.4261 44.4171 32.6712 44.9884 31.002C45.0776 30.5715 45.2383 29.4322 45.1669 28.3195V27.624C45.1966 26.796 45.1847 25.001 44.8991 24.4447C44.6135 23.8883 44.4231 23.5505 44.3636 23.4511L40.2577 18.2847L35.5271 12.7209L30.6179 6.95836L25.8873 1.79195L24.3699 0.301641C23.9831 -0.0626557 23.2096 -0.393834 23.2096 1.19583Z" fill="url(#paint2_angular_32_115)"/>
<path d="M4.91181 36.4665L1.87706 33.2872L15.3549 17.4899L18.7467 13.9131C18.9056 13.9565 19.253 14.0571 19.3715 14.1118C19.7999 14.2708 20.3236 14.8404 20.5319 15.1054C20.7401 15.3703 21.1031 16.0989 20.8889 16.8938C20.6747 17.6886 19.1335 19.7419 18.3897 20.6692L4.91181 36.4665Z" fill="url(#paint3_angular_32_115)"/>
<defs>
<radialGradient id="paint0_angular_32_115" cx="0" cy="0" r="1" gradientUnits="userSpaceOnUse" gradientTransform="translate(22.5923 18.35) rotate(90) scale(18.35 24.7173)">
<stop stop-color="#BF953F"/>
<stop offset="0.249328" stop-color="#FCF6BA"/>
<stop offset="0.497926" stop-color="#B38728"/>
<stop offset="0.747546" stop-color="#FBF5B7"/>
<stop offset="1" stop-color="#AA771C"/>
</radialGradient>
<radialGradient id="paint1_angular_32_115" cx="0" cy="0" r="1" gradientUnits="userSpaceOnUse" gradientTransform="translate(22.5923 18.35) rotate(90) scale(18.35 24.7173)">
<stop stop-color="#BF953F"/>
<stop offset="0.249328" stop-color="#FCF6BA"/>
<stop offset="0.497926" stop-color="#B38728"/>
<stop offset="0.747546" stop-color="#FBF5B7"/>
<stop offset="1" stop-color="#AA771C"/>
</radialGradient>
<radialGradient id="paint2_angular_32_115" cx="0" cy="0" r="1" gradientUnits="userSpaceOnUse" gradientTransform="translate(22.5923 18.35) rotate(90) scale(18.35 24.7173)">
<stop stop-color="#BF953F"/>
<stop offset="0.249328" stop-color="#FCF6BA"/>
<stop offset="0.497926" stop-color="#B38728"/>
<stop offset="0.747546" stop-color="#FBF5B7"/>
<stop offset="1" stop-color="#AA771C"/>
</radialGradient>
<radialGradient id="paint3_angular_32_115" cx="0" cy="0" r="1" gradientUnits="userSpaceOnUse" gradientTransform="translate(22.5923 18.35) rotate(90) scale(18.35 24.7173)">
<stop stop-color="#BF953F"/>
<stop offset="0.249328" stop-color="#FCF6BA"/>
<stop offset="0.497926" stop-color="#B38728"/>
<stop offset="0.747546" stop-color="#FBF5B7"/>
<stop offset="1" stop-color="#AA771C"/>
</radialGradient>
</defs>
</svg>
